<mxfile host="app.diagrams.net" agent="Mozilla/5.0 (Macintosh; Intel Mac OS X 10_15_7) AppleWebKit/537.36 (KHTML, like Gecko) Chrome/130.0.0.0 Safari/537.36" version="24.7.7">
  <diagram name="Page-1" id="5f0bae14-7c28-e335-631c-24af17079c00">
    <mxGraphModel dx="1026" dy="684" grid="1" gridSize="10" guides="1" tooltips="1" connect="1" arrows="1" fold="1" page="1" pageScale="1" pageWidth="1100" pageHeight="850" background="none" math="0" shadow="0">
      <root>
        <mxCell id="0" />
        <mxCell id="1" parent="0" />
        <mxCell id="39150e848f15840c-1" value="FaceNet" style="verticalAlign=top;align=left;spacingTop=8;spacingLeft=2;spacingRight=12;shape=cube;size=10;direction=south;fontStyle=4;html=1;rounded=0;shadow=0;comic=0;labelBackgroundColor=none;strokeWidth=1;fontFamily=Verdana;fontSize=12;movable=1;resizable=1;rotatable=1;deletable=1;editable=1;locked=0;connectable=1;" parent="1" vertex="1">
          <mxGeometry x="120" y="70" width="330" height="220" as="geometry" />
        </mxCell>
        <mxCell id="39150e848f15840c-2" value="Perceiver" style="verticalAlign=top;align=left;spacingTop=8;spacingLeft=2;spacingRight=12;shape=cube;size=10;direction=south;fontStyle=4;html=1;rounded=0;shadow=0;comic=0;labelBackgroundColor=none;strokeWidth=1;fontFamily=Verdana;fontSize=12" parent="1" vertex="1">
          <mxGeometry x="500" y="70" width="540" height="290" as="geometry" />
        </mxCell>
        <mxCell id="39150e848f15840c-4" value="MTCNN" style="html=1;rounded=0;shadow=0;comic=0;labelBackgroundColor=none;strokeWidth=1;fontFamily=Verdana;fontSize=12;align=center;" parent="1" vertex="1">
          <mxGeometry x="160" y="140" width="110" height="50" as="geometry" />
        </mxCell>
        <mxCell id="39150e848f15840c-8" value="Latent&amp;nbsp;&lt;div&gt;Self-attention&lt;/div&gt;" style="html=1;rounded=0;shadow=0;comic=0;labelBackgroundColor=none;strokeWidth=1;fontFamily=Verdana;fontSize=12;align=center;direction=south;horizontal=0;" parent="1" vertex="1">
          <mxGeometry x="790" y="110" width="50" height="110" as="geometry" />
        </mxCell>
        <mxCell id="Yiebgixw2GcFdLQXUAno-1" value="Inception&amp;nbsp;&lt;div&gt;ResNet V1&amp;nbsp;&lt;/div&gt;" style="html=1;rounded=0;shadow=0;comic=0;labelBackgroundColor=none;strokeWidth=1;fontFamily=Verdana;fontSize=12;align=center;" vertex="1" parent="1">
          <mxGeometry x="290" y="140" width="110" height="50" as="geometry" />
        </mxCell>
        <mxCell id="Yiebgixw2GcFdLQXUAno-3" value="&lt;div&gt;&lt;br&gt;&lt;/div&gt;&lt;div&gt;Cross Attention&lt;/div&gt;" style="html=1;rounded=0;shadow=0;comic=0;labelBackgroundColor=none;strokeWidth=1;fontFamily=Verdana;fontSize=12;align=center;direction=south;horizontal=0;" vertex="1" parent="1">
          <mxGeometry x="850" y="110" width="50" height="110" as="geometry" />
        </mxCell>
        <mxCell id="Yiebgixw2GcFdLQXUAno-4" value="&lt;div&gt;&lt;br&gt;&lt;/div&gt;&lt;div&gt;Cross Attention&lt;/div&gt;" style="html=1;rounded=0;shadow=0;comic=0;labelBackgroundColor=none;strokeWidth=1;fontFamily=Verdana;fontSize=12;align=center;direction=south;horizontal=0;" vertex="1" parent="1">
          <mxGeometry x="730" y="110" width="50" height="110" as="geometry" />
        </mxCell>
        <mxCell id="Yiebgixw2GcFdLQXUAno-5" value="Latent&amp;nbsp;&lt;div&gt;Self-attention&lt;/div&gt;" style="html=1;rounded=0;shadow=0;comic=0;labelBackgroundColor=none;strokeWidth=1;fontFamily=Verdana;fontSize=12;align=center;direction=south;horizontal=0;" vertex="1" parent="1">
          <mxGeometry x="910" y="110" width="50" height="110" as="geometry" />
        </mxCell>
        <mxCell id="Yiebgixw2GcFdLQXUAno-6" value="" style="rounded=0;whiteSpace=wrap;html=1;" vertex="1" parent="1">
          <mxGeometry x="600" y="155" width="20" height="20" as="geometry" />
        </mxCell>
        <mxCell id="Yiebgixw2GcFdLQXUAno-7" value="" style="rounded=0;whiteSpace=wrap;html=1;direction=south;" vertex="1" parent="1">
          <mxGeometry x="560" y="155" width="20" height="20" as="geometry" />
        </mxCell>
        <mxCell id="Yiebgixw2GcFdLQXUAno-8" value="" style="rounded=0;whiteSpace=wrap;html=1;" vertex="1" parent="1">
          <mxGeometry x="580" y="155" width="20" height="20" as="geometry" />
        </mxCell>
        <mxCell id="Yiebgixw2GcFdLQXUAno-10" value="&lt;div&gt;Fixed-dimensional&lt;/div&gt;&lt;div&gt;Latent Array&lt;/div&gt;" style="html=1;rounded=0;shadow=0;comic=0;labelBackgroundColor=none;strokeWidth=1;fontFamily=Verdana;fontSize=12;align=center;direction=west;horizontal=1;strokeColor=none;" vertex="1" parent="1">
          <mxGeometry x="535" y="110" width="110" height="40" as="geometry" />
        </mxCell>
        <mxCell id="Yiebgixw2GcFdLQXUAno-14" value="&lt;div&gt;High-dimensional&amp;nbsp;&lt;/div&gt;&lt;div&gt;input b&lt;span style=&quot;background-color: initial;&quot;&gt;yte array&lt;/span&gt;&lt;/div&gt;" style="html=1;rounded=0;shadow=0;comic=0;labelBackgroundColor=none;strokeWidth=1;fontFamily=Verdana;fontSize=12;align=center;direction=west;horizontal=1;strokeColor=none;" vertex="1" parent="1">
          <mxGeometry x="545" y="240" width="110" height="40" as="geometry" />
        </mxCell>
        <mxCell id="Yiebgixw2GcFdLQXUAno-16" value="" style="rounded=0;whiteSpace=wrap;html=1;" vertex="1" parent="1">
          <mxGeometry x="604" y="284" width="20" height="20" as="geometry" />
        </mxCell>
        <mxCell id="Yiebgixw2GcFdLQXUAno-17" value="" style="rounded=0;whiteSpace=wrap;html=1;direction=south;" vertex="1" parent="1">
          <mxGeometry x="564" y="284" width="20" height="20" as="geometry" />
        </mxCell>
        <mxCell id="Yiebgixw2GcFdLQXUAno-18" value="" style="rounded=0;whiteSpace=wrap;html=1;" vertex="1" parent="1">
          <mxGeometry x="584" y="284" width="20" height="20" as="geometry" />
        </mxCell>
        <mxCell id="Yiebgixw2GcFdLQXUAno-20" value="" style="rounded=0;whiteSpace=wrap;html=1;direction=south;" vertex="1" parent="1">
          <mxGeometry x="624" y="284" width="20" height="20" as="geometry" />
        </mxCell>
        <mxCell id="Yiebgixw2GcFdLQXUAno-21" value="" style="rounded=0;whiteSpace=wrap;html=1;" vertex="1" parent="1">
          <mxGeometry x="544" y="284" width="20" height="20" as="geometry" />
        </mxCell>
      </root>
    </mxGraphModel>
  </diagram>
</mxfile>
